<?xml version="1.0" encoding="UTF-8" standalone="no"?>
<svg width="76px" height="82px" viewBox="0 0 76 82" version="1.1" xmlns="http://www.w3.org/2000/svg" xmlns:xlink="http://www.w3.org/1999/xlink" xmlns:sketch="http://www.bohemiancoding.com/sketch/ns">
    <!-- Generator: Sketch 3.3 (11970) - http://www.bohemiancoding.com/sketch -->
    <title>Imported Layers</title>
    <desc>Created with Sketch.</desc>
    <defs></defs>
    <g id="Welcome" stroke="none" stroke-width="1" fill="none" fill-rule="evenodd" sketch:type="MSPage">
        <g id="Desktop-HD" sketch:type="MSArtboardGroup" transform="translate(-526.000000, -1044.000000)">
            <g id="submit-4-copy-7" sketch:type="MSLayerGroup" transform="translate(0.000000, 799.000000)">
                <g id="Group" transform="translate(117.000000, 245.000000)" sketch:type="MSShapeGroup">
                    <g id="Hardware-&amp;-Software-+-An-end-to-end-system-+-Group-Copy-2" transform="translate(328.000000, 0.000000)">
                        <g id="Imported-Layers" transform="translate(81.000000, 0.000000)">
                            <path d="M14.0284045,81.2884792 L54.0206292,0.569729167" id="Stroke-1" stroke="#CF202E"></path>
                            <path d="M50.4870562,38.3409792 C45.726382,38.3409792 41.8529438,42.2154792 41.8529438,46.9774583 C41.8529438,51.7402917 45.726382,55.6139375 50.4870562,55.6139375 C55.2485843,55.6139375 59.1220225,51.7402917 59.1220225,46.9774583 C59.1220225,42.2154792 55.2485843,38.3409792 50.4870562,38.3409792 L50.4870562,38.3409792 Z M50.4870562,49.1982917 C49.260809,49.1982917 48.2668315,48.2040417 48.2668315,46.9774583 C48.2668315,45.750875 49.260809,44.756625 50.4870562,44.756625 C51.7133034,44.756625 52.7072809,45.750875 52.7072809,46.9774583 C52.7072809,48.2040417 51.7133034,49.1982917 50.4870562,49.1982917 L50.4870562,49.1982917 Z" id="Fill-2" fill="#CF202E"></path>
                            <path d="M50.4870562,22.1775833 C49.7142472,22.1775833 48.9508315,22.2177292 48.1959551,22.2869167 L29.4572584,60.1085625 C33.8387865,67.1144375 41.6164045,71.7773333 50.4870562,71.7773333 C64.1798652,71.7773333 75.2809888,60.6740208 75.2809888,46.9774583 C75.2809888,33.2808958 64.1798652,22.1775833 50.4870562,22.1775833 L50.4870562,22.1775833 Z M53.858382,23.4613958 C58.3287191,24.0994583 62.4011236,25.9854583 65.7109663,28.7572292 L57.595191,38.4699583 C56.050427,37.17675 54.1470112,36.3055 52.06,36.0073958 L53.858382,23.4613958 L53.858382,23.4613958 Z M50.4870562,57.0950625 C44.9100225,57.0950625 40.3730787,52.5560208 40.3730787,46.9774583 C40.3730787,41.3988958 44.9100225,36.8607083 50.4870562,36.8607083 C56.0649438,36.8607083 60.6018876,41.3988958 60.6018876,46.9774583 C60.6018876,52.5560208 56.0649438,57.0950625 50.4870562,57.0950625 L50.4870562,57.0950625 Z M60.3217978,42.2641667 C60.1971236,42.0045 60.0639101,41.7508125 59.9195955,41.5031042 L71.1769888,34.9234583 C71.5023371,35.480375 71.8106067,36.0483958 72.0915506,36.6317917 L60.3217978,42.2641667 L60.3217978,42.2641667 Z" id="Fill-3" fill="#CF202E"></path>
                            <path d="M0.426966292,15.9250833 L0.426966292,31.441875 L34.2290337,31.441875 L41.9169888,15.9250833 L0.426966292,15.9250833 L0.426966292,15.9250833 Z M4.58988764,28.9348958 C3.76498876,28.9348958 3.09550562,28.2660833 3.09550562,27.4401042 C3.09550562,26.6149792 3.76498876,25.9453125 4.58988764,25.9453125 C5.41564045,25.9453125 6.08426966,26.6149792 6.08426966,27.4401042 C6.08426966,28.2660833 5.41564045,28.9348958 4.58988764,28.9348958 L4.58988764,28.9348958 Z" id="Fill-4" fill="#CF202E"></path>
                            <path d="M0.426966292,48.6875 L25.6845843,48.6875 L33.3725393,33.1698542 L0.426966292,33.1698542 L0.426966292,48.6875 L0.426966292,48.6875 Z M4.58988764,43.1900833 C5.41564045,43.1900833 6.08426966,43.85975 6.08426966,44.6857292 C6.08426966,45.5108542 5.41564045,46.1796667 4.58988764,46.1796667 C3.76498876,46.1796667 3.09550562,45.5108542 3.09550562,44.6857292 C3.09550562,43.85975 3.76498876,43.1900833 4.58988764,43.1900833 L4.58988764,43.1900833 Z" id="Fill-5" fill="#CF202E"></path>
                            <path d="M0.426966292,65.933125 L17.1401348,65.933125 L24.8280899,50.4154792 L0.426966292,50.4154792 L0.426966292,65.933125 L0.426966292,65.933125 Z M4.58988764,60.4357083 C5.41564045,60.4357083 6.08426966,61.1045208 6.08426966,61.9305 C6.08426966,62.755625 5.41564045,63.4252917 4.58988764,63.4252917 C3.76498876,63.4252917 3.09550562,62.755625 3.09550562,61.9305 C3.09550562,61.1045208 3.76498876,60.4357083 4.58988764,60.4357083 L4.58988764,60.4357083 Z" id="Fill-6" fill="#CF202E"></path>
                        </g>
                    </g>
                </g>
            </g>
        </g>
    </g>
</svg>